<svg xmlns:dc="http://purl.org/dc/elements/1.1/" xmlns:cc="http://creativecommons.org/ns#" xmlns:rdf="http://www.w3.org/1999/02/22-rdf-syntax-ns#" xmlns:svg="http://www.w3.org/2000/svg" xmlns="http://www.w3.org/2000/svg" xmlns:sodipodi="http://sodipodi.sourceforge.net/DTD/sodipodi-0.dtd" xmlns:inkscape="http://www.inkscape.org/namespaces/inkscape" version="1.1" x="0px" y="0px" viewBox="0 0 100 125"><g transform="translate(0,-952.36218)"><path style="text-indent:0;text-transform:none;direction:ltr;block-progression:tb;baseline-shift:baseline;color:#000000;enable-background:accumulate;" d="m 50,961.36216 c -1.1046,0 -2,0.8954 -2,2 l 0,20 c 0,1.1045 0.8954,2 2,2 1.1046,0 2,-0.8955 2,-2 l 0,-20 c 0,-1.1046 -0.8954,-2 -2,-2 z m -27.5625,11.4375 c -0.5119,0 -1.047,0.17197 -1.4375,0.5625 -0.7811,0.78107 -0.7811,2.06266 0,2.84375 l 14.1562,14.125 c 0.781,0.78098 2.0314,0.78107 2.8126,0 0.781,-0.78107 0.7808,-2.0315 0,-2.8125 l -14.125,-14.15625 c -0.3905,-0.39053 -0.8944,-0.5625 -1.4063,-0.5625 z m 55.125,0 c -0.5118,0 -1.0157,0.17197 -1.4063,0.5625 l -14.125,14.15625 c -0.7809,0.78101 -0.7809,2.03145 0,2.8125 0.7811,0.78107 2.0315,0.781 2.8126,0 L 79,976.20591 c 0.7811,-0.78107 0.781,-2.0627 0,-2.84375 -0.3906,-0.39053 -0.9257,-0.5625 -1.4375,-0.5625 z M 11,1000.3622 c -1.1046,0 -2,0.8954 -2,2 0,1.1046 0.8954,2 2,2 l 20,0 c 1.1045,0 2,-0.8954 2,-2 0,-1.1046 -0.8955,-2 -2,-2 l -20,0 z m 58,0 c -1.1045,0 -2,0.8954 -2,2 0,1.1046 0.8955,2 2,2 l 20,0 c 1.1046,0 2,-0.8954 2,-2 0,-1.1046 -0.8954,-2 -2,-2 l -20,0 z m -32.4375,13.4375 c -0.5118,0 -1.0158,0.2032 -1.4063,0.5937 L 21,1028.5184 c -0.7811,0.7811 -0.781,2.0627 0,2.8438 0.7811,0.7811 2.0626,0.7811 2.8438,0 l 14.125,-14.1563 c 0.7809,-0.781 0.7809,-2.0314 0,-2.8125 -0.3906,-0.3905 -0.8945,-0.5937 -1.4063,-0.5937 z m 26.875,0 c -0.5119,0 -1.0157,0.2032 -1.4063,0.5937 -0.781,0.7811 -0.7808,2.0315 0,2.8125 l 14.125,14.1563 c 0.781,0.7811 2.0628,0.7811 2.8438,0 0.7811,-0.7811 0.7811,-2.0627 0,-2.8438 l -14.1562,-14.125 c -0.3905,-0.3905 -0.8944,-0.5937 -1.4063,-0.5937 z M 50,1019.3622 c -1.1046,0 -2,0.8955 -2,2 l 0,20 c 0,1.1046 0.8954,2 2,2 1.1046,0 2,-0.8954 2,-2 l 0,-20 c 0,-1.1045 -0.8954,-2 -2,-2 z" fill="#000000" fill-opacity="1" stroke="none" marker="none" visibility="visible" display="inline" overflow="visible"/></g><text x="0" y="115" fill="#000000" font-size="5px" font-weight="bold" font-family="'Helvetica Neue', Helvetica, Arial-Unicode, Arial, Sans-serif">Created by Aybige</text><text x="0" y="120" fill="#000000" font-size="5px" font-weight="bold" font-family="'Helvetica Neue', Helvetica, Arial-Unicode, Arial, Sans-serif">from the Noun Project</text></svg>